<svg xmlns="http://www.w3.org/2000/svg" width="640" height="640" viewBox="0 0 640 640" role="img" aria-label="coastal pier">
  <defs>
    <linearGradient id="sky" x1="0" y1="0" x2="0" y2="1">
      <stop offset="0" stop-color="#CFE3E6"/>
      <stop offset="0.55" stop-color="#9FC7CE"/>
      <stop offset="1" stop-color="#6E9AA6"/>
    </linearGradient>
    <linearGradient id="ground" x1="0" y1="0" x2="0" y2="1">
      <stop offset="0" stop-color="#6E9AA6"/>
      <stop offset="1" stop-color="#4A6B78"/>
    </linearGradient>
  </defs>
  <rect width="640" height="640" fill="url(#sky)"/>
  <circle cx="430" cy="232" r="54" fill="#FFF6E2" opacity="0.55"/>
  <path d="M0 402 C120 372 210 396 320 386 C430 376 520 398 640 380 L640 640 L0 640 Z" fill="url(#ground)"/>
  <path d="M0 402 C120 372 210 396 320 386 C430 376 520 398 640 380" fill="none" stroke="#FFFFFF" stroke-opacity="0.28" stroke-width="2"/>
  <path d="M0 470 C140 452 250 478 380 462 C470 451 560 466 640 456" fill="none" stroke="#FFFFFF" stroke-opacity="0.16" stroke-width="2"/>
  <rect width="640" height="640" fill="#5E2612" opacity="0.05"/>
</svg>
